<svg xmlns="http://www.w3.org/2000/svg" viewBox="0 0 512 512"><defs><linearGradient id="a" x1="-1654.5" y1="-208.83" x2="-1650.69" y2="-227.22" gradientTransform="matrix(26.56 0 0 -26.56 44312.21 -5651.28)" gradientUnits="userSpaceOnUse"><stop offset="0" stop-color="#ffeb53"/><stop offset=".19" stop-color="#ffb45b"/><stop offset=".48" stop-color="#ff6766"/><stop offset=".73" stop-color="#ff2f6e"/><stop offset=".9" stop-color="#ff0d74"/><stop offset="1" stop-color="#ff0076"/></linearGradient><clipPath id="b"><path d="M438.77 341.84H334.82c0 41.86-32 75.8-71.46 75.8s-71.46-33.94-71.46-75.8H88l47.64-119.1h255.49z" fill="none"/></clipPath></defs><path d="M431.73 135.69A80.28 80.28 0 10512 216a80.27 80.27 0 00-80.27-80.28zm0 140.63A60.35 60.35 0 11492.07 216a60.34 60.34 0 01-60.34 60.35z" fill="url(#a)"/><circle cx="50.92" cy="268.65" r="50.91" fill="#802fe0"/><path fill="#201f1e" d="M38.14 341.84l56.31-164.58h337.82l51.98 164.58v164.58H38.14V341.84z"/><path d="M484.25 511.16H38.14a4.74 4.74 0 01-4.74-4.74V341.84a5 5 0 01.25-1.53L90 175.72a4.75 4.75 0 014.49-3.2h337.78a4.74 4.74 0 014.52 3.31l52 164.58a5 5 0 01.22 1.43v164.58a4.74 4.74 0 01-4.76 4.74zm-441.37-9.48H479.5V342.57L428.8 182h-331l-55 160.63z" fill="#bac7d3"/><g clip-path="url(#b)" opacity=".3"><path fill="#dee5ed" d="M87.95 222.74h350.82v194.9H87.95z"/></g><path d="M263.36 422.38c-40.51 0-73.75-33.59-76.08-75.8H109.6a4.74 4.74 0 010-9.48h87v4.74c0 39.18 29.93 71.05 66.72 71.05s66.72-31.87 66.72-71.05v-4.74h152a4.74 4.74 0 110 9.48h-142.6c-2.34 42.21-35.57 75.8-76.08 75.8zM88 346.32H62a4.75 4.75 0 010-9.49h26a4.75 4.75 0 010 9.49zm174.14-224.07a4.75 4.75 0 01-4.74-4.75V5.58a4.74 4.74 0 119.48 0V117.5a4.75 4.75 0 01-4.74 4.75zm55.28.68a4.75 4.75 0 01-3.35-8.1l79.14-79.14a4.74 4.74 0 016.71 6.7l-79.14 79.15a4.77 4.77 0 01-3.36 1.39zm-118.15 0a4.76 4.76 0 01-3.35-1.39l-79.14-79.15a4.74 4.74 0 116.7-6.7l79.15 79.14a4.75 4.75 0 01-3.36 8.1z" fill="#bac7d3"/></svg>